Coordinates
version=1
nRows=7
nColumns=40
inDegrees=yes

Units are S.I. units (second, meters, Newtons, ...)
Angles are in degrees.

endheader
time	pelvis_tilt	pelvis_list	pelvis_rotation	pelvis_tx	pelvis_ty	pelvis_tz	hip_flexion_r	hip_adduction_r	hip_rotation_r	knee_angle_r	knee_angle_r_beta	ankle_angle_r	subtalar_angle_r	mtp_angle_r	hip_flexion_l	hip_adduction_l	hip_rotation_l	knee_angle_l	knee_angle_l_beta	ankle_angle_l	subtalar_angle_l	mtp_angle_l	lumbar_extension	lumbar_bending	lumbar_rotation	arm_flex_r	arm_add_r	arm_rot_r	elbow_flex_r	pro_sup_r	wrist_flex_r	wrist_dev_r	arm_flex_l	arm_add_l	arm_rot_l	elbow_flex_l	pro_sup_l	wrist_flex_l	wrist_dev_l
      1.88000000	     -3.26148073	      0.37982773	     -0.56176908	     -0.24771108	      0.88479404	     -0.95729658	      3.50914100	      0.68596967	    -13.36181156	    -20.62445214	     -0.35996460	     15.26373286	     -0.77251823	     -0.97517898	     31.21147930	      5.15883994	     12.73369785	    -29.76540888	     -0.51950439	      7.91953555	     10.63537943	     11.57008198	     -2.81965180	     -2.57378560	      0.65332171	      3.76599242	     -8.67144569	     -5.60873475	     31.10925442	     89.95437384	      0.00000000	      0.00000000	     -4.49040932	      7.72400269	     19.68981063	     22.64458948	     89.95437384	      0.00000000	      0.00000000
      1.89000000	     -3.28041315	      0.63943194	     -0.98185050	     -0.24133945	      0.88426251	     -0.95769024	      3.15363727	      0.20148129	    -13.39052096	    -20.76087912	     -0.36234570	     15.73381910	      0.41027048	     -1.86837010	     31.05683647	      5.30495179	     14.24551714	    -28.28214504	     -0.49361655	      6.94444532	      7.63764665	      9.70427175	     -2.70376681	     -2.84630498	      1.08090619	      3.78684729	     -8.66681887	     -5.72726556	     30.95150510	     89.95437384	      0.00000000	      0.00000000	     -4.50162958	      7.57280973	     20.52994142	     22.07074568	     89.95437384	      0.00000000	      0.00000000
      1.90000000	     -3.46669481	      0.51596253	     -0.95508898	     -0.23552897	      0.88325781	     -0.95823369	      2.94041068	      0.26687297	    -13.49230367	    -20.80679097	     -0.36314701	     15.81910904	      0.38861540	     -1.91131204	     31.56531536	      5.43414533	     14.48966247	    -27.64547630	     -0.48250458	      7.04182555	      7.47983197	      9.55391550	     -2.51247644	     -2.76911925	      1.09194031	      3.72746680	     -8.66353433	     -5.67664545	     30.94369327	     89.95437384	      0.00000000	      0.00000000	     -4.68464470	      7.61024917	     20.50917635	     21.96447469	     89.95437384	      0.00000000	      0.00000000
      1.91000000	     -3.70620832	      0.58588168	     -1.13855233	     -0.22952577	      0.88230971	     -0.95873919	      2.81103270	      0.12307904	    -13.19730782	    -20.88075051	     -0.36443785	     16.05870341	      0.56925052	     -2.10214026	     31.80924559	      5.34730009	     14.47978554	    -26.62348119	     -0.46466741	      7.09911951	      6.50286430	      9.11516369	     -2.20748489	     -2.88214980	      1.30104107	      3.68972514	     -8.64839002	     -5.70425740	     30.80663521	     89.95437384	      0.00000000	      0.00000000	     -4.78090592	      7.61755973	     20.65541666	     21.66279247	     89.95437384	      0.00000000	      0.00000000
      1.92000000	     -3.82981219	      0.52386365	     -1.20534298	     -0.22348122	      0.88138870	     -0.95947258	      2.57524665	      0.09121247	    -13.25629457	    -21.01883990	     -0.36684796	     16.14513593	      0.54427062	     -2.15377425	     32.16358698	      5.42425705	     14.68461356	    -26.19224337	     -0.45714089	      7.14503415	      6.22665962	      8.92822226	     -2.08504600	     -2.83931430	      1.36483644	      3.65705089	     -8.65593601	     -5.69820301	     30.79474718	     89.95437384	      0.00000000	      0.00000000	     -4.94339245	      7.60317264	     20.68904582	     21.59976960	     89.95437384	      0.00000000	      0.00000000
      1.93000000	     -3.94567304	      0.46650474	     -1.35106800	     -0.21729135	      0.88051617	     -0.96008958	      2.34352875	      0.04677607	    -13.21685854	    -21.19564101	     -0.36993372	     16.26667700	      0.55823428	     -2.22404393	     32.37925434	      5.50727883	     14.76936337	    -25.74588962	     -0.44935054	      7.20043872	      5.86481736	      8.71844428	     -1.94391396	     -2.82336072	      1.49281057	      3.62918787	     -8.64941768	     -5.74379061	     30.72186681	     89.95437384	      0.00000000	      0.00000000	     -5.10650681	      7.61411221	     20.76775826	     21.50596539	     89.95437384	      0.00000000	      0.00000000
      1.94000000	     -3.61476701	      0.62783018	     -1.76379332	     -0.21042642	      0.88034063	     -0.96048888	      1.61614194	     -0.30583142	    -12.98691432	    -21.42449055	     -0.37392790	     16.54092603	      1.55623774	     -3.65452638	     31.87170298	      5.69447934	     15.82721155	    -25.27439827	     -0.44112147	      6.61776201	      3.61001522	      5.82553943	     -2.24441243	     -3.06373292	      1.80799924	      3.70003699	     -8.53086382	     -5.99199559	     30.43537244	     89.95437384	      0.00000000	      0.00000000	     -5.07706250	      7.48254461	     21.97503271	     21.20337365	     89.95437384	      0.00000000	      0.00000000
